<svg height="1247" viewBox="0 0 1222 1247" width="1222" xmlns="http://www.w3.org/2000/svg" xmlns:xlink="http://www.w3.org/1999/xlink"><filter id="a" height="101.1%" width="101.2%" x="-.6%" y="-.4%"><feOffset dx="0" dy="2" in="SourceAlpha" result="shadowOffsetOuter1"/><feGaussianBlur in="shadowOffsetOuter1" result="shadowBlurOuter1" stdDeviation="2"/><feColorMatrix in="shadowBlurOuter1" result="shadowMatrixOuter1" type="matrix" values="0 0 0 0 0   0 0 0 0 0   0 0 0 0 0  0 0 0 0.5 0"/><feMerge><feMergeNode in="shadowMatrixOuter1"/><feMergeNode in="SourceGraphic"/></feMerge></filter><linearGradient id="b" x1="50%" x2="31.169564%" y1="0%" y2="87.852607%"><stop offset="0" stop-color="#ab268f"/><stop offset="1" stop-color="#b76c08"/></linearGradient><radialGradient id="c" cx="51.205986%" cy="1.078583%" gradientTransform="matrix(.51067479 .45672566 -.26218108 .8896076 .253392 -.23268)" r="38.952763%"><stop offset="0" stop-color="#e76e45" stop-opacity=".209466"/><stop offset="1" stop-color="#9f041b"/></radialGradient><linearGradient id="d" x1="25.694551%" x2="75.292676%" y1="6.258549%" y2="73.448963%"><stop offset="0" stop-color="#801ca0"/><stop offset="1" stop-color="#a83992"/></linearGradient><linearGradient id="e" x1="22.950892%" x2="82.38045%" y1="11.552716%" y2="101.723301%"><stop offset="0" stop-color="#975dda"/><stop offset=".586421253" stop-color="#cf4898"/><stop offset="1" stop-color="#965dd9"/><stop offset="1" stop-color="#4a2365"/></linearGradient><g fill="none" filter="url(#a)" transform="translate(3 2)"><path d="m521.8.7-110 127.2 50.3 18.8 85.7-143.4z" fill="url(#b)"/><path d="m471.5 137.4 743.2 327.8-105.9 123.6-675.3-411.8s-21.8-49.3-21.7-49.1c.2.1 59.7 9.5 59.7 9.5z" fill="url(#c)"/><path d="m.9 240.9 129.7-115.7 1084.1 340.1-105.9 123.5-947.3-260.7z" fill="url(#d)"/><path d="m524 1108.6 216.5 130.3 208.3-226.1-818.2-887.6-129.7 115.7z" fill="url(#e)"/></g></svg>